<svg width="53" height="32" viewBox="0 0 53 32" fill="none" xmlns="http://www.w3.org/2000/svg">
<path d="M14.4518 0.253723C14.3364 0.173302 14.1992 0.109491 14.0483 0.0659519C13.8973 0.0224124 13.7354 0 13.5719 0C13.4084 0 13.2465 0.0224124 13.0955 0.0659519C12.9445 0.109491 12.8074 0.173302 12.692 0.253723L6.10013 4.8049L3.75032 3.21476C3.63492 3.13433 3.49779 3.07052 3.3468 3.02698C3.19581 2.98344 3.03393 2.96103 2.87044 2.96103C2.70695 2.96103 2.54506 2.98344 2.39407 3.02698C2.24308 3.07052 2.10596 3.13433 1.99055 3.21476L0.365355 4.34482C0.24955 4.42496 0.157665 4.52019 0.0949691 4.62505C0.0322733 4.72991 0 4.84233 0 4.95586C0 5.0694 0.0322733 5.18182 0.0949691 5.28667C0.157665 5.39153 0.24955 5.48676 0.365355 5.5669L5.29167 8.97435C5.53756 9.13668 5.86386 9.22719 6.20312 9.22719C6.54239 9.22719 6.86869 9.13668 7.11458 8.97435L8.72839 7.85148L16.2022 2.66194C16.4351 2.5001 16.5667 2.28102 16.5684 2.05223C16.5702 1.82344 16.4419 1.60341 16.2115 1.43986L14.4518 0.253723ZM14.4518 11.6974C14.3364 11.617 14.1992 11.5532 14.0483 11.5097C13.8973 11.4661 13.7354 11.4437 13.5719 11.4437C13.4084 11.4437 13.2465 11.4661 13.0955 11.5097C12.9445 11.5532 12.8074 11.617 12.692 11.6974L6.10013 16.2781L3.75032 14.6894C3.63492 14.609 3.49779 14.5452 3.3468 14.5016C3.19581 14.4581 3.03393 14.4357 2.87044 14.4357C2.70695 14.4357 2.54506 14.4581 2.39407 14.5016C2.24308 14.5452 2.10596 14.609 1.99055 14.6894L0.365355 15.8173C0.24955 15.8974 0.157665 15.9927 0.0949691 16.0975C0.0322733 16.2024 0 16.3148 0 16.4283C0 16.5419 0.0322733 16.6543 0.0949691 16.7591C0.157665 16.864 0.24955 16.9592 0.365355 17.0394L5.27925 20.454C5.52497 20.6163 5.85109 20.7068 6.19019 20.7068C6.52928 20.7068 6.8554 20.6163 7.10112 20.454L8.72632 19.3261L16.2002 14.1344C16.4321 13.9737 16.5633 13.7558 16.565 13.5283C16.5668 13.3008 16.439 13.0819 16.2095 12.9195L14.4518 11.6974ZM6.62495 24.1562C3.88282 24.1562 1.59512 25.7018 1.59512 27.6068C1.59512 29.5118 3.88489 31.0574 6.62495 31.0574C7.94275 31.0574 9.20657 30.6938 10.1384 30.0467C11.0702 29.3996 11.5937 28.5219 11.5937 27.6068C11.5937 26.6916 11.0702 25.814 10.1384 25.1669C9.20657 24.5197 7.94275 24.1562 6.62495 24.1562ZM51.3438 25.3064H21.5312C21.092 25.3064 20.6707 25.4276 20.3601 25.6433C20.0495 25.859 19.875 26.1515 19.875 26.4566V28.757C19.875 29.062 20.0495 29.3546 20.3601 29.5703C20.6707 29.786 21.092 29.9072 21.5312 29.9072H51.3438C51.783 29.9072 52.2043 29.786 52.5149 29.5703C52.8255 29.3546 53 29.062 53 28.757V26.4566C53 26.1515 52.8255 25.859 52.5149 25.6433C52.2043 25.4276 51.783 25.3064 51.3438 25.3064ZM51.3438 2.30251H21.5312C21.092 2.30251 20.6707 2.42369 20.3601 2.63939C20.0495 2.8551 19.875 3.14765 19.875 3.4527V5.75309C19.875 6.05814 20.0495 6.3507 20.3601 6.5664C20.6707 6.7821 21.092 6.90329 21.5312 6.90329H51.3438C51.783 6.90329 52.2043 6.7821 52.5149 6.5664C52.8255 6.3507 53 6.05814 53 5.75309V3.4527C53 3.14765 52.8255 2.8551 52.5149 2.63939C52.2043 2.42369 51.783 2.30251 51.3438 2.30251ZM51.3438 13.8045H21.5312C21.092 13.8045 20.6707 13.9256 20.3601 14.1413C20.0495 14.357 19.875 14.6496 19.875 14.9546V17.255C19.875 17.5601 20.0495 17.8526 20.3601 18.0683C20.6707 18.2841 21.092 18.4052 21.5312 18.4052H51.3438C51.783 18.4052 52.2043 18.2841 52.5149 18.0683C52.8255 17.8526 53 17.5601 53 17.255V14.9546C53 14.6496 52.8255 14.357 52.5149 14.1413C52.2043 13.9256 51.783 13.8045 51.3438 13.8045Z" fill="#80B3FF"/>
</svg>
